PathFileType	4	(X/Y/Z)	\\Move.snu.ac.kr\motion\Animal\091204_091205_Bird\091205_bird\Project 2\Capture day 2\Session 1\pigeon_024.trc
DataRate	CameraRate	NumFrames	NumMarkers	Units	OrigDataRate	OrigDataStartFrame	OrigNumFrames
240.0	240.0	13	14	mm	240.0	350	1929
Frame#	Time	14MarkersBird:Head			14MarkersBird:C_back			14MarkersBird:Spine			14MarkersBird:L-shoulder			14MarkersBird:L-elbow			14MarkersBird:L-wrist			14MarkersBird:L-hand			14MarkersBird:R-shoulder			14MarkersBird:R-elbow			14MarkersBird:R-Wrist			14MarkersBird:R-hand			14MarkersBird:C_Tail			14MarkersBird:L-Tale			14MarkersBird:R-Tale			
		X1	Y1	Z1	X2	Y2	Z2	X3	Y3	Z3	X4	Y4	Z4	X5	Y5	Z5	X6	Y6	Z6	X7	Y7	Z7	X8	Y8	Z8	X9	Y9	Z9	X10	Y10	Z10	X11	Y11	Z11	X12	Y12	Z12	X13	Y13	Z13	X14	Y14	Z14	

1236	5.146	2073.34277	430.76755	755.30945	2033.51135	421.83749	701.09375	1994.91016	405.95297	666.52789	2065.88086	418.19666	711.25500	2075.10303	408.37476	681.72638	2115.88843	393.22354	691.02118	2141.46216	386.14102	682.64252	2036.58545	425.58423	742.89667	2009.88843	432.54370	747.81042	2012.37488	426.08609	790.15820	1995.33423	426.49805	827.99487	1925.69653	334.79639	595.13123	2035.98340	350.29810	590.51056	1886.89246	394.38675	699.62714	
1237	5.150	2085.54248	426.65704	767.62256	2045.32031	418.45837	713.46405	2006.63574	402.39017	679.04724	2078.10718	414.84778	723.68494	2088.22363	402.06671	695.53479	2126.90015	385.61969	710.85858	2152.25513	375.16895	707.16888	2049.04834	421.88705	755.30792	2023.04968	425.54294	762.69812	2030.65906	416.26697	803.85400	2017.69617	410.82907	843.19385	1937.15991	324.73901	613.17151	2046.13806	345.35678	602.65625	1899.24097	390.75424	713.16791	
1238	5.154	2097.86670	422.58707	779.91736	2057.23218	415.30530	725.78040	2018.38208	398.70691	691.63226	2090.43457	411.79059	736.00024	2100.67334	396.44568	708.99017	2137.13794	379.95599	729.64093	2161.16089	366.55725	730.72546	2061.62988	418.45969	767.67010	2035.96826	419.42426	776.49664	2048.39136	408.46729	816.17859	2039.87756	398.26941	855.84296	1948.99255	315.49161	631.17218	2056.80566	340.16733	615.23889	1911.76904	387.09842	727.12213	
1239	5.158	2110.32520	418.53094	792.23499	2069.26343	412.25998	738.13239	2030.21619	394.75494	704.36646	2102.82715	408.88010	748.31396	2112.55566	391.57065	721.86334	2147.22119	376.66760	746.69055	2168.94800	360.81967	752.45905	2074.31738	415.22302	779.99603	2048.42627	414.35587	789.35559	2065.11523	403.10764	827.50415	2060.82520	389.29971	866.70276	1961.18311	307.19980	648.77057	2067.85718	334.58905	628.21259	1924.49292	382.77963	741.52002	
1240	5.162	2122.92603	414.47873	804.60718	2081.45215	409.16592	750.64856	2042.28345	390.53879	717.24396	2115.24634	405.89981	760.77161	2124.00635	387.51990	733.99829	2157.64893	375.77783	761.57501	2176.56616	358.07779	771.61334	2087.08691	412.03116	792.33850	2060.37915	410.41324	801.45093	2080.52905	400.27597	838.16803	2079.58789	383.84549	876.62122	1973.62854	299.68323	665.93396	2078.94556	328.68842	641.36292	1937.44556	377.39417	756.28802	
1241	5.167	2135.67871	410.43866	817.05286	2093.84253	405.87372	763.45197	2054.68774	386.21915	730.22510	2127.69287	402.67459	773.43787	2135.10474	384.36752	745.37659	2168.55029	376.77768	774.29193	2184.84058	357.83057	787.59320	2099.91870	408.71954	804.75598	2071.87354	407.58752	812.85376	2094.51489	399.69836	848.34711	2095.48486	381.47961	886.17639	1986.26526	292.74933	682.72675	2089.76440	322.58929	654.51178	1950.65942	370.96289	771.22327	
1242	5.171	2148.58813	406.40204	829.58972	2106.47925	402.29562	776.60962	2067.39868	382.00787	743.28430	2140.20044	399.12143	786.27759	2145.81763	382.15891	756.17749	2179.74829	378.94452	785.16589	2194.22388	359.04642	800.11786	2112.81860	405.20135	817.25964	2083.05298	405.74802	823.49060	2107.17261	400.84488	858.06213	2108.27051	381.52655	895.54736	1999.30945	286.75729	698.50385	2100.27393	316.41348	667.62366	1964.13696	363.88803	786.02557	
1243	5.175	2161.64136	402.33313	842.23499	2119.38232	398.42636	790.08850	2080.32349	378.04535	756.36920	2152.78979	395.22263	799.24707	2156.00928	380.85040	766.78015	2190.99268	381.67557	794.64636	2204.67578	360.61777	809.25543	2125.80371	401.47675	829.81329	2094.21899	404.60907	833.20618	2118.77759	403.08640	867.27832	2118.09351	383.13556	904.59235	2012.61951	281.36218	713.44739	2110.74072	310.39612	680.69421	1977.81799	356.75677	800.41858	
1244	5.179	2174.79980	398.19278	854.99103	2132.51733	394.31531	803.76624	2093.41797	374.29956	769.40186	2165.45874	390.98566	812.34491	2165.54199	380.22821	777.68713	2202.03979	384.56937	803.24799	2215.65625	361.85806	815.30035	2138.83496	397.53357	842.40277	2105.81860	403.76306	841.89056	2129.65894	405.83463	875.98901	2125.38110	385.57043	913.00897	2026.01855	276.38956	727.65198	2121.59839	304.95950	693.59180	1991.52991	350.20676	814.22363	
1245	5.183	2188.00562	393.96155	867.83154	2145.77734	390.03549	817.49829	2106.67676	370.59915	782.32074	2178.19800	386.41751	825.55371	2174.43262	379.94284	789.35571	2212.67432	387.40118	811.47070	2226.27222	362.73325	818.74475	2151.81372	393.32248	855.04028	2118.28979	402.76373	849.62360	2140.13818	408.62970	884.26898	2130.70239	388.52695	920.44391	2039.44019	271.82556	741.09131	2133.24341	300.54993	706.11340	2004.99548	344.93439	827.27966	
1246	5.188	2201.20337	389.64325	880.70209	2159.01294	385.62222	831.17407	2120.05859	366.76190	795.13623	2190.99023	381.54892	838.81451	2182.91528	379.62729	802.02124	2222.78857	389.99829	819.73010	2235.62646	363.70920	820.42358	2164.69409	388.84973	867.69489	2131.88086	401.23874	856.73779	2150.58325	411.11685	892.22278	2134.69043	392.09784	926.53333	2052.84473	267.64810	753.76190	2145.90698	297.35162	718.17914	2017.94824	341.60291	839.38342	
1247	5.192	2214.35229	385.25787	893.54297	2172.11230	381.03030	844.70007	2133.47314	362.61795	807.97675	2203.78540	376.45172	852.05304	2191.36230	378.95471	815.65430	2232.43970	392.03305	828.48920	2243.25195	365.36813	821.57959	2177.54102	384.23120	880.27277	2146.56812	398.96765	863.76086	2161.32813	412.96893	900.02277	2138.12402	396.45361	930.95667	2066.19287	263.83401	765.66180	2159.60205	295.17645	729.93024	2030.32654	340.46701	850.41797	
1248	5.196	2227.42700	380.82532	906.32159	2185.05151	376.16367	857.97791	2146.79199	358.09717	820.91028	2216.52637	371.29474	865.23541	2200.19556	377.64883	830.01862	2241.95825	393.09369	838.13080	2249.42383	368.10608	823.56567	2190.44971	379.58685	892.70258	2162.10254	395.89664	871.29224	2172.46875	413.92184	908.03864	2142.03931	401.58850	933.58728	2079.44653	260.36023	776.78912	2174.10864	293.70544	741.57159	2042.36450	341.05646	860.50348	
